<?xml version="1.0" encoding="UTF-8"?>
<svg id="Layer_1" data-name="Layer 1" xmlns="http://www.w3.org/2000/svg" viewBox="0 0 53.85 62.46">
  <defs>
    <style>
      .cls-1 {
        fill: #3076bc;
      }

      .cls-2 {
        fill: #0abfd8;
      }
    </style>
  </defs>
  <path class="cls-2" d="M51.54,16.67l-.44.76.44-.76c-1.29-1.03-2.63-1.16-3.98-.39l-4.44,2.45-.13.09-2.74-1.68c-1.15-.9-2.46-1.37-3.82-1.37h0l-2.32.08c-.33.01-.62.27-.72.64s.01.78.28,1.01l4.87,4.29-3.84,2.34c-.47-.05-1.89-.46-2.53-.64-.88-.25-1.02-.29-1.17-.29h-1.56c-.33,0-.63.24-.74.61-.11.37-.01.77.24,1.02,1.36,1.31,4.42,4.01,6.3,4.01.31,0,.58-.07.81-.23l15.5-9.25c.36-.3.57-.8.57-1.34,0-.54-.22-1.04-.59-1.33Z"/>
  <path class="cls-1" d="M9.11,15.61h5.2c.72,0,1.3-.58,1.3-1.3s-.58-1.3-1.3-1.3h-5.2c-.72,0-1.3.58-1.3,1.3s.58,1.3,1.3,1.3Z"/>
  <path class="cls-1" d="M23.42,54.65h5.2c.72,0,1.3-.58,1.3-1.3v-5.2c0-.72-.58-1.3-1.3-1.3h-5.2c-.72,0-1.3.58-1.3,1.3v5.2c0,.72.58,1.3,1.3,1.3ZM24.72,49.44h2.6v2.6h-2.6v-2.6h0Z"/>
  <path class="cls-1" d="M14.31,26.02h-5.2c-.72,0-1.3.58-1.3,1.3v5.2c0,.72.58,1.3,1.3,1.3h5.2c.72,0,1.3-.58,1.3-1.3v-5.2c0-.72-.58-1.3-1.3-1.3ZM13.01,31.23h-2.6v-2.6h2.6v2.6h0Z"/>
  <path class="cls-1" d="M52.55,39.64h-6.51v-3.9c0-.72-.58-1.3-1.3-1.3h-15.61c-.72,0-1.3.58-1.3,1.3v3.9h-7.01v-17.52c0-.72-.58-1.3-1.3-1.3h-.8l2.03-6.09c.04-.13.07-.27.07-.41v-5.2c0-.72-.58-1.3-1.3-1.3h-6.51V1.3c0-.72-.58-1.3-1.3-1.3s-1.3.58-1.3,1.3v6.51H3.9c-.72,0-1.3.58-1.3,1.3v5.2c0,.14.02.28.07.41l2.03,6.09h-.8c-.72,0-1.3.58-1.3,1.3v17.52h-1.3c-.72,0-1.3.58-1.3,1.3v20.22c0,.72.58,1.3,1.3,1.3h51.25c.72,0,1.3-.58,1.3-1.3v-20.22c0-.72-.58-1.3-1.3-1.3ZM30.43,37.04h13.01v2.6h-13.01v-2.6ZM5.2,23.42h1.3c.42,0,.81-.2,1.06-.54.24-.34.31-.78.18-1.17l-2.53-7.61v-3.69h13.01v3.69l-2.53,7.61c-.14.4-.07.84.18,1.17.24.34.64.54,1.06.54h1.3v16.22H5.2v-16.21ZM46.05,59.85h-5.2v-10.41h5.2v10.41ZM51.25,59.85h-2.6v-11.71c0-.72-.58-1.3-1.3-1.3h-7.81c-.72,0-1.3.58-1.3,1.3v11.71H2.6v-17.61h48.65v17.61Z"/>
  <path class="cls-1" d="M10.41,54.65h5.2c.72,0,1.3-.58,1.3-1.3v-5.2c0-.72-.58-1.3-1.3-1.3h-5.2c-.72,0-1.3.58-1.3,1.3v5.2c0,.72.58,1.3,1.3,1.3ZM11.71,49.44h2.6v2.6h-2.6v-2.6Z"/>
</svg>