<?xml version="1.0" encoding="UTF-8"?>
<svg id="Layer_1" xmlns="http://www.w3.org/2000/svg" version="1.1" viewBox="0 0 48.4 58.7">
  <!-- Generator: Adobe Illustrator 29.0.0, SVG Export Plug-In . SVG Version: 2.1.0 Build 186)  -->
  <defs>
    <style>
      .st0 {
        fill: #fff;
      }
    </style>
  </defs>
  <path class="st0" d="M27.1,11V2.9l-.6-.6c-.1-.2-.3-.3-.5-.5l-1.8-1.8L.8,23.3c-1.1,1.1-1.1,2.9,0,4,1.1,1.1,2.9,1.1,4,0L21.4,10.8v45.1c0,1.6,1.3,2.8,2.8,2.8s2.8-1.3,2.8-2.8c0,0,0-44.9,0-44.9Z"/>
  <path class="st0" d="M31.9,15.8l11.7,11.7c1.1,1.1,2.9,1.1,4,0,.5-.5.8-1.3.8-2s-.3-1.5-.8-2l-15.7-15.7v8h0Z"/>
</svg>