<?xml version="1.0" encoding="UTF-8"?>
<svg id="Layer_1" xmlns="http://www.w3.org/2000/svg" version="1.1" viewBox="0 0 60.1 59.9">
  <!-- Generator: Adobe Illustrator 29.0.0, SVG Export Plug-In . SVG Version: 2.1.0 Build 186)  -->
  <defs>
    <style>
      .st0 {
        fill: #3076bc;
      }

      .st1 {
        fill: #676767;
      }

      .st2 {
        fill: #0abfd8;
      }
    </style>
  </defs>
  <g>
    <path class="st2" d="M44,43.2c-3.5,3.7-8.5,6-14,6s-10.3-2.2-13.9-5.8l-2.2,8.2c4.5,3.3,10,5.3,16,5.3s11.7-2,16.2-5.4l-2.2-8.3h0ZM34.3,3l-4.3,7.3c10.7,0,19.4,8.7,19.4,19.4s-.9,6.8-2.5,9.6h0c-.8,1.4-1.7,2.7-2.8,3.8l8.1,2.2c3.1-4.4,4.9-9.8,4.9-15.6,0-13.5-9.9-24.7-22.8-26.7ZM3,29.8c0,5.9,1.9,11.3,5,15.7l8.2-2.2h0c-1.2-1.2-2.2-2.5-3-4h0c-1.6-2.8-2.5-6.1-2.5-9.6,0-10.7,8.7-19.4,19.4-19.4l-4.3-7.3C12.9,5.1,3,16.3,3,29.8Z"/>
    <polygon class="st0" points="47 39.4 30.1 31.5 13.2 39.4 30.1 10.4 47 39.4"/>
  </g>
  <g>
    <path class="st1" d="M57.9,4.6c-.2-.4-.4-.7-.7-1s-.6-.5-1-.7-.8-.2-1.2-.2-.8,0-1.2.2-.7.4-1,.7c-.3.3-.5.6-.7,1s-.2.8-.2,1.2,0,.8.2,1.2c.2.4.4.7.7,1s.6.5,1,.7.8.2,1.2.2.8,0,1.2-.2.7-.4,1-.7.5-.6.7-1,.2-.8.2-1.2,0-.8-.2-1.2ZM57.2,7.1c-.2.4-.5.7-.9.9s-.8.3-1.3.3-.9-.1-1.3-.3c-.4-.2-.7-.5-.9-.9s-.3-.8-.3-1.3,0-.9.3-1.3.5-.7.9-.9c.4-.2.8-.3,1.3-.3s.9,0,1.3.3c.4.2.7.5.9.9s.3.8.3,1.3,0,.9-.3,1.3Z"/>
    <path class="st1" d="M55.9,6.3s0,0-.2-.2c.3,0,.5-.2.6-.4.2-.2.2-.4.2-.7s0-.6-.3-.8c-.2-.2-.5-.3-.9-.3h-1.6v3.7h.5v-1.4h1s0,0,.2.2l.5,1.1h.5l-.5-1.1s0-.2,0-.2h0ZM55.1,5.8h-.8v-1.4h1c.3,0,.5,0,.6,0s.2.3.2.5,0,.5-.2.6c-.2,0-.4,0-.7,0h0Z"/>
  </g>
</svg>