<?xml version="1.0" encoding="UTF-8"?>
<svg id="Layer_1" xmlns="http://www.w3.org/2000/svg" version="1.1" viewBox="0 0 58.7 48.4">
  <!-- Generator: Adobe Illustrator 29.0.0, SVG Export Plug-In . SVG Version: 2.1.0 Build 186)  -->
  <defs>
    <style>
      .st0 {
        fill: #164ff6;
      }
    </style>
  </defs>
  <path class="st0" d="M47.7,27.1h8l.6-.6c.2-.1.3-.3.5-.5l1.8-1.8L35.4.8c-1.1-1.1-2.9-1.1-4,0-1.1,1.1-1.1,2.9,0,4l16.5,16.5H2.8c-1.6,0-2.8,1.3-2.8,2.8s1.3,2.8,2.8,2.8h44.9v.2Z"/>
  <path class="st0" d="M42.9,31.9l-11.7,11.7c-1.1,1.1-1.1,2.9,0,4,.5.5,1.3.8,2,.8s1.5-.3,2-.8l15.7-15.7s-8,0-8,0Z"/>
</svg>