<?xml version="1.0" encoding="UTF-8"?>
<svg id="Layer_1" data-name="Layer 1" xmlns="http://www.w3.org/2000/svg" viewBox="0 0 48.74 44.52">
  <defs>
    <style>
      .cls-1 {
        fill: #3076bc;
      }

      .cls-2 {
        fill: #0abfd8;
      }
    </style>
  </defs>
  <path class="cls-2" d="M40.62,20.55c-.9,0-1.62-.73-1.62-1.62,0-1.34-1.67-2.7-4.87-2.7h-2.16c-4.47,0-8.11-3.64-8.11-8.11V1.62c0-.9.73-1.62,1.62-1.62s1.62.73,1.62,1.62v6.49c0,2.68,2.18,4.87,4.87,4.87h2.16c2.36,0,4.38.58,5.84,1.68,1.44,1.08,2.27,2.64,2.27,4.27,0,.9-.73,1.62-1.62,1.62Z"/>
  <path class="cls-1" d="M47.11,44.35H8.17c-.9,0-1.62-.73-1.62-1.62v-8.65c0-.47.21-.92.57-1.23l7.57-6.49c.54-.46,1.31-.52,1.92-.14l7.79,4.87,7.79-4.87c.56-.35,1.27-.33,1.8.06l5.01,3.58v-6.58c0-.9.73-1.62,1.62-1.62h6.49c.9,0,1.62.73,1.62,1.62v19.47c0,.9-.73,1.62-1.62,1.62ZM42.25,41.1h3.25v-16.23h-3.25v8.1s0,.02,0,.03v8.09ZM9.8,41.1h29.21v-7.28l-6.01-4.29-7.73,4.83c-.53.33-1.19.33-1.72,0l-7.64-4.78-6.1,5.23v6.28Z"/>
  <path class="cls-2" d="M47.11,20.55c-.9,0-1.62-.73-1.62-1.62,0-4.68-1.23-8.13-3.55-9.96-1.22-.96-2.47-1.27-3.1-1.36-.35-.03-.57-.05-.59-.05-.85-.11-1.47-.86-1.42-1.71.05-.86.76-1.52,1.62-1.52.08,0,.37,0,.79.06,1.47.09,4.28,0,5.57-1.14.46-.41.67-.93.67-1.63,0-.9.73-1.62,1.62-1.62s1.62.73,1.62,1.62c0,1.64-.61,3.04-1.77,4.07-.63.55-1.41.99-2.33,1.32,1.08,1.01,1.95,2.27,2.61,3.76.99,2.23,1.49,4.97,1.49,8.16,0,.9-.73,1.62-1.62,1.62Z"/>
  <path class="cls-1" d="M3.2,42.92V4.74h13.24v18.18c0,.88.72,1.6,1.6,1.6h0c.88,0,1.6-.72,1.6-1.6V3.13c0-.88-.72-1.6-1.6-1.6H1.6c-.88,0-1.6.72-1.6,1.6v39.8c0,.88.72,1.6,1.6,1.6h0c.88,0,1.6-.72,1.6-1.6Z"/>
</svg>