<?xml version="1.0" encoding="UTF-8"?>
<svg id="Layer_1" xmlns="http://www.w3.org/2000/svg" version="1.1" viewBox="0 0 112.6 119.9">
  <!-- Generator: Adobe Illustrator 29.0.0, SVG Export Plug-In . SVG Version: 2.1.0 Build 186)  -->
  <defs>
    <style>
      .st0 {
        fill: #3076bc;
      }
    </style>
  </defs>
  <path class="st0" d="M76.7,114.9H9c-2.4,0-4.3-1.9-4.3-4.3V9.3c0-2.4,1.9-4.3,4.3-4.3h67.8c2.4,0,4.3,1.9,4.3,4.3v101.3c0,2.4-1.9,4.3-4.3,4.3ZM9,8.1c-.6,0-1.1.5-1.1,1.1v101.3c0,.6.5,1.1,1.1,1.1h67.8c.6,0,1.1-.5,1.1-1.1V9.3c0-.6-.5-1.1-1.1-1.1H9Z"/>
  <path class="st0" d="M65.9,115H19.8c-.9,0-1.6-.7-1.6-1.6V31c0-1.8,1.5-3.3,3.3-3.3h3.3c.9,0,1.6.7,1.6,1.6s-.7,1.6-1.6,1.6h-3.3s0,0,0,0v80.7h19.9V31h-9.1c-.9,0-1.6-.7-1.6-1.6s.7-1.6,1.6-1.6h32.1c1.8,0,3.3,1.5,3.3,3.3v82.3c0,.9-.7,1.6-1.6,1.6ZM44.5,111.8h19.9V31s0,0,0,0h-19.8v80.7ZM102.2,76.6h-13.1c-2.3,0-4.1-1.8-4.1-4.1v-27c0-2.3,1.8-4.1,4.1-4.1h13.1c2.3,0,4.1,1.8,4.1,4.1v14.6c0,.9-.7,1.6-1.6,1.6s-1.6-.7-1.6-1.6v-14.6c0-.5-.4-.9-.9-.9h-13.1c-.5,0-.9.4-.9.9v27c0,.5.4.9.9.9h13.1c.5,0,.9-.4.9-.9v-5c0-.9.7-1.6,1.6-1.6s1.6.7,1.6,1.6v5c0,2.3-1.8,4.1-4.1,4.1ZM55.9,23.6h-26c-1.7,0-3-1.3-3-3v-5.3c0-1.7,1.3-3,3-3h26c1.7,0,3,1.3,3,3v5.3c0,1.7-1.3,3-3,3ZM30.1,20.4h25.6v-4.8h-25.6v4.8Z"/>
  <path class="st0" d="M95.7,68.3c-.4,0-.8-.1-1.1-.4l-3.4-3.3c-.6-.6-.7-1.6,0-2.3.6-.6,1.6-.7,2.3,0l2.3,2.2,2.2-2.1c.6-.6,1.7-.6,2.3,0,.6.6.6,1.7,0,2.3l-3.3,3.3c-.3.3-.7.5-1.1.5ZM92.3,56.2c-.4,0-.8-.2-1.2-.5-.6-.6-.6-1.7,0-2.3l3.4-3.3c.6-.6,1.6-.6,2.2,0l3.3,3.3c.6.6.6,1.6,0,2.3-.6.6-1.6.6-2.3,0l-2.2-2.1-2.3,2.2c-.3.3-.7.4-1.1.4ZM100.4,34.1c-.9,0-1.6-.7-1.6-1.6,0-6.7-5.5-12.2-12.2-12.2s-1.6-.7-1.6-1.6.7-1.6,1.6-1.6c8.5,0,15.5,6.9,15.5,15.5s-.7,1.6-1.6,1.6ZM94.4,34.1c-.9,0-1.6-.7-1.6-1.6,0-3.4-2.8-6.2-6.2-6.2s-1.6-.7-1.6-1.6.7-1.6,1.6-1.6c5.2,0,9.4,4.2,9.4,9.4s-.7,1.6-1.6,1.6Z"/>
  <path class="st0" d="M106.4,34.1c-.9,0-1.6-.7-1.6-1.6,0-10-8.1-18.2-18.2-18.2s-1.6-.7-1.6-1.6.7-1.6,1.6-1.6c11.8,0,21.4,9.6,21.4,21.4s-.7,1.6-1.6,1.6Z"/>
</svg>