<?xml version="1.0" encoding="UTF-8"?>
<svg id="Layer_1" xmlns="http://www.w3.org/2000/svg" version="1.1" viewBox="0 0 112.6 119.9">
  <!-- Generator: Adobe Illustrator 29.0.0, SVG Export Plug-In . SVG Version: 2.1.0 Build 186)  -->
  <defs>
    <style>
      .st0 {
        fill: #3076bc;
        fill-rule: evenodd;
      }
    </style>
  </defs>
  <path class="st0" d="M86.1,37.9H26.4c-.7,0-1.3.6-1.3,1.3v74.4h-8.7V21.2h79.9v92.4h-8.8V39.3c0-.7-.6-1.3-1.3-1.3ZM33.4,18.5H15c-.7,0-1.3.6-1.3,1.3v95.1c0,.7.6,1.3,1.3,1.3h82.6c.7,0,1.3-.6,1.3-1.3V19.9c0-.7-.6-1.3-1.3-1.3h-18.4V4.9c0-.7-.6-1.3-1.3-1.3h-43c-.7,0-1.3.6-1.3,1.3v13.6ZM76.4,18.5h-40.3V6.3h40.3v12.2ZM27.8,40.6h27.1v73h-27.1V40.6ZM57.6,113.6V40.6h27.1v73h-27.1Z"/>
  <path class="st0" d="M52.8,65.2c0-1.8-2.7-1.8-2.7,0v23.8c0,1.7,2.7,1.7,2.7,0v-23.8ZM59.8,65.2v23.8c0,1.7,2.7,1.7,2.7,0v-23.8c0-1.8-2.7-1.8-2.7,0ZM88.3,61.1c4,4,3.1,4,7.1,0,1.2-1.3-.7-3.2-1.9-1.9l-1.6,1.6-1.7-1.6c-1.2-1.3-3.1.6-1.9,1.9ZM91.9,66.5c-4.9,0-4.9,7.4,0,7.4s4.8-7.4,0-7.4ZM91.9,71.2c-2,0-.7-3,.7-1.7s.2,1.7-.7,1.7ZM91.9,83.5c4.8,0,4.8-7.3,0-7.3s-4.9,7.3,0,7.3ZM91.9,80.8c-2,0-.7-3,.7-1.7.6.6.2,1.7-.7,1.7ZM65.9,18.1c.6-.3,3.8-3.8,4.6-4.4,1.2-1.3-.7-3.2-2-2l-1.9,2v-5.9c0-1.7-2.7-1.7-2.7,0v5.9l-1.9-2c-1.3-1.2-3.2.7-2,2,.7.7,4,4.2,4.6,4.4.3.2.9.2,1.2,0ZM48.7,16.9v-5.8l1.9,1.9c1.3,1.3,3.2-.7,1.9-1.9-6.1-6.1-4.2-6.1-10.3,0-1.3,1.2.7,3.2,1.9,1.9l2-1.9v5.8c0,1.7,2.7,1.7,2.7,0ZM20.7,83.5c4.8,0,4.8-7.3,0-7.3s-4.8,7.3,0,7.3ZM20.7,80.8c-1.9,0-.6-3,.7-1.7.6.6.1,1.7-.7,1.7ZM20.7,73.9c4.8,0,4.8-7.4,0-7.4s-4.8,7.4,0,7.4ZM20.7,71.2c-1.9,0-.6-3,.7-1.7s.1,1.7-.7,1.7ZM20.7,62.1c1.1,1.1,2.3,2.8,3.5,1.6s.5-1.3,0-1.9c-4-4-3-4-7,0-1.3,1.2.6,3.2,1.9,1.9l1.6-1.6ZM34.6,25.5h43.3v8.3h-43.3v-8.3ZM31.9,35.1c0,.7.6,1.3,1.3,1.3h46c.7,0,1.3-.6,1.3-1.3v-11c0-.8-.6-1.3-1.3-1.3h-46c-.7,0-1.3.5-1.3,1.3v11Z"/>
</svg>