<?xml version="1.0" encoding="UTF-8"?>
<svg id="Layer_1" data-name="Layer 1" xmlns="http://www.w3.org/2000/svg" viewBox="0 0 62.72 38.77">
  <defs>
    <style>
      .cls-1 {
        fill: #3076bc;
      }

      .cls-2 {
        fill: #0abfd8;
      }
    </style>
  </defs>
  <path class="cls-1" d="M52.74,25.67H9.99c-3.94,0-7.41-2.22-9.06-5.8-1.65-3.58-1.08-7.66,1.49-10.66l2.45-2.86C8.32,2.31,13.35,0,18.66,0h25.41c5.31,0,10.34,2.31,13.79,6.35l2.45,2.86c2.56,2.99,3.13,7.08,1.49,10.66-1.65,3.58-5.12,5.8-9.06,5.8ZM18.66,2.82c-4.49,0-8.74,1.95-11.65,5.36l-2.45,2.86c-1.84,2.15-2.25,5.08-1.07,7.64,1.18,2.57,3.67,4.16,6.5,4.16h42.75c2.83,0,5.32-1.6,6.5-4.16s.77-5.5-1.07-7.64l-2.45-2.86c-2.92-3.41-7.17-5.36-11.65-5.36h-25.41Z"/>
  <path class="cls-1" d="M47.92,19H14.81c-2.46,0-4.58-1.5-5.4-3.81-.82-2.31-.12-4.81,1.78-6.36l1.9-1.55c2.01-1.64,4.54-2.54,7.13-2.54h22.28c2.59,0,5.12.9,7.13,2.54l1.9,1.55c1.9,1.55,2.6,4.05,1.78,6.36-.82,2.31-2.94,3.81-5.4,3.81ZM20.22,7.56c-1.94,0-3.85.68-5.35,1.9l-1.9,1.55c-1.17.96-1.24,2.3-.9,3.24.33.94,1.23,1.94,2.74,1.94h33.11c1.52,0,2.41-1,2.74-1.94s.27-2.28-.9-3.24l-1.9-1.55c-1.51-1.23-3.41-1.9-5.35-1.9h-22.28Z"/>
  <path class="cls-1" d="M50.57,38.77H12.15C5.45,38.77,0,33.32,0,26.61v-11.52h2.82v11.52c0,5.15,4.19,9.34,9.34,9.34h38.41c5.15,0,9.34-4.19,9.34-9.34v-11.52h2.82v11.52c0,6.7-5.45,12.15-12.15,12.15Z"/>
  <path class="cls-1" d="M36.71,37.36h-2.82v-6.03c0-.25-.2-.44-.44-.44h-4.18c-.25,0-.44.2-.44.44v6.03h-2.82v-6.03c0-1.8,1.46-3.26,3.26-3.26h4.18c1.8,0,3.26,1.46,3.26,3.26v6.03Z"/>
  <g>
    <g>
      <path class="cls-2" d="M14.4,33.07c-.78,0-1.41-.63-1.41-1.41v-1.2c0-.78.63-1.41,1.41-1.41s1.41.63,1.41,1.41v1.2c0,.78-.63,1.41-1.41,1.41Z"/>
      <path class="cls-2" d="M20.04,33.07c-.78,0-1.41-.63-1.41-1.41v-1.2c0-.78.63-1.41,1.41-1.41s1.41.63,1.41,1.41v1.2c0,.78-.63,1.41-1.41,1.41Z"/>
    </g>
    <g>
      <path class="cls-2" d="M42.68,33.07c-.78,0-1.41-.63-1.41-1.41v-1.2c0-.78.63-1.41,1.41-1.41s1.41.63,1.41,1.41v1.2c0,.78-.63,1.41-1.41,1.41Z"/>
      <path class="cls-2" d="M48.32,33.07c-.78,0-1.41-.63-1.41-1.41v-1.2c0-.78.63-1.41,1.41-1.41s1.41.63,1.41,1.41v1.2c0,.78-.63,1.41-1.41,1.41Z"/>
    </g>
  </g>
</svg>