<?xml version="1.0" encoding="UTF-8"?>
<svg id="Layer_1" xmlns="http://www.w3.org/2000/svg" version="1.1" viewBox="0 0 112.6 119.9">
  <!-- Generator: Adobe Illustrator 29.0.0, SVG Export Plug-In . SVG Version: 2.1.0 Build 186)  -->
  <defs>
    <style>
      .st0 {
        fill: #3076bc;
      }
    </style>
  </defs>
  <path class="st0" d="M29.4,31.4h10.1c.9,0,1.7-.8,1.7-1.7s-.1-.7-.3-1l-5-6.7c-.6-.7-1.7-.8-2.5-.2,0,0-.2.2-.2.2l-5,6.7c-.6.7-.4,1.8.3,2.4.3.2.6.3,1,.3ZM34.4,25.8l1.7,2.2h-3.4l1.7-2.2ZM53.3,30.7c.6.7,1.6.9,2.4.3.1,0,.2-.2.3-.3l5-6.7c.6-.7.4-1.8-.3-2.4-.3-.2-.6-.3-1-.3h-10.1c-.9,0-1.7.8-1.7,1.7s.1.7.3,1l5,6.7ZM56.3,24.7l-1.7,2.2-1.7-2.2h3.4ZM93.3,61.6h-10.1c-.9,0-1.7.8-1.7,1.7v20.2c0,.9.8,1.7,1.7,1.7h10.1c.9,0,1.7-.8,1.7-1.7v-20.2c0-.9-.8-1.7-1.7-1.7ZM91.6,81.8h-6.7v-16.8h6.7v16.8Z"/>
  <path class="st0" d="M86.5,68.4h3.4v3.4h-3.4v-3.4ZM86.5,75.1h3.4v3.4h-3.4v-3.4Z"/>
  <path class="st0" d="M84.9,7.9c-6.1,0-12,2.4-16.4,6.7H5.9c-.9,0-1.7.8-1.7,1.7v94.1c0,.9.8,1.7,1.7,1.7h94.1c.9,0,1.7-.8,1.7-1.7v-62.5c9.1-9.3,8.9-24.1-.3-33.2-4.4-4.3-10.3-6.7-16.5-6.7ZM7.6,17.9h58c-3.5,4.9-4.9,10.9-4,16.8H12.6c-.9,0-1.7.8-1.7,1.7v72.3h-3.4V17.9ZM71.4,50.7c1.1.7,2.2,1.4,3.4,1.9v56.1h-3.4v-58ZM68.1,108.7h-21.8v-63.8h19.4c.7,1.1,1.6,2.1,2.5,3v60.9ZM42.9,108.7h-21.8v-63.8h21.8v63.8ZM19.3,41.5c-.9,0-1.7.8-1.7,1.7v65.5h-3.4V38.1h48c.3,1.2.8,2.3,1.3,3.4H19.3ZM78.1,108.7v-54.8c6.9,2.1,14.3.9,20.2-3.3v58h-20.2ZM84.9,51.5c-11.1,0-20.2-9-20.2-20.2s9-20.2,20.2-20.2,20.2,9,20.2,20.2c0,11.1-9,20.2-20.2,20.2Z"/>
  <path class="st0" d="M88.9,13c-.9-.4-1.8,0-2.2.9,0,.2-.1.4-.1.7v5.1l-1.7,1.6-1.7-1.6v-5.1c0-.9-.8-1.7-1.7-1.7-.2,0-.4,0-.7.1-4.9,2-7.4,7.6-5.4,12.5.8,2.1,2.4,3.8,4.4,4.9v8.3c-2.5,2.8-2.2,7,.6,9.5,2.8,2.5,7,2.2,9.5-.6,2.2-2.5,2.2-6.4,0-8.9v-8.3c4.7-2.5,6.4-8.4,3.9-13-1.1-2-2.8-3.5-4.9-4.4h0ZM87.6,27.9c-.6.3-1,.9-1,1.5v10c0,.5.2.9.6,1.2.7.6,1.1,1.5,1.1,2.5,0,1.9-1.5,3.4-3.4,3.4s-3.4-1.5-3.4-3.4c0-1,.4-1.9,1.1-2.5.4-.3.6-.8.6-1.2v-10c0-.7-.4-1.3-1-1.5-2.4-1-4-3.3-4-5.9,0-1.6.6-3.1,1.7-4.2v2.6c0,.5.2.9.5,1.2l3.4,3.2c.7.6,1.7.6,2.3,0l3.4-3.2c.3-.3.5-.8.5-1.2v-2.6c1.1,1.1,1.7,2.7,1.7,4.2,0,2.6-1.6,4.9-4,5.9Z"/>
</svg>