<?xml version="1.0" encoding="UTF-8"?>
<svg id="Layer_1" data-name="Layer 1" xmlns="http://www.w3.org/2000/svg" viewBox="0 0 50.49 49.22">
  <defs>
    <style>
      .cls-1 {
        fill: #3076bc;
      }

      .cls-2 {
        fill: #0abfd8;
      }
    </style>
  </defs>
  <path class="cls-2" d="M42.28,37.86h-3.78c-4.53,0-8.21,3.68-8.21,8.2v1.26c0,1.05.85,1.9,1.9,1.9h16.4c1.05,0,1.9-.85,1.9-1.9v-1.26c0-4.52-3.68-8.2-8.21-8.2ZM34.13,45.43c.3-2.14,2.15-3.78,4.37-3.78h3.78c2.23,0,4.07,1.64,4.38,3.78h-12.53Z"/>
  <path class="cls-1" d="M33.6,2.41c-.43-.84-1.1-1.51-1.93-1.93-.95-.48-1.92-.48-3.52-.48H5.93c-1.6,0-2.57,0-3.52.48-.83.42-1.5,1.09-1.93,1.93-.48.94-.48,1.91-.48,3.52v41.39c0,1.05.85,1.9,1.9,1.9h20.19c1.05,0,1.89-.85,1.89-1.9v-7.57c0-3.83-3.11-6.94-6.94-6.94s-6.94,3.11-6.94,6.94v5.68H3.79V5.93c0-.79,0-1.6.07-1.81.06-.11.15-.21.27-.27.21-.07,1.02-.07,1.8-.07h22.22c.79,0,1.6,0,1.81.07.11.06.2.16.26.27.07.21.07,1.02.07,1.81v11.1c0,1.05.85,1.9,1.9,1.9s1.89-.85,1.89-1.9V5.93c0-1.61,0-2.58-.48-3.52ZM13.89,39.75c0-1.74,1.41-3.15,3.15-3.15s3.16,1.41,3.16,3.15v5.68h-6.31v-5.68Z"/>
  <path class="cls-2" d="M30.22,4.11s0,0,0,0c0,0,0,0,0,0Z"/>
  <path class="cls-1" d="M3.86,4.11s0,0,0,0c0,0,0,0,0,0Z"/>
  <path class="cls-1" d="M4.12,3.86h0s0,0,0,0Z"/>
  <path class="cls-2" d="M40.26,22.71c-3.13,0-5.67,2.55-5.67,5.68s2.54,5.68,5.67,5.68,5.68-2.55,5.68-5.68-2.54-5.68-5.68-5.68ZM40.26,30.29c-1.04,0-1.89-.85-1.89-1.9s.85-1.89,1.89-1.89,1.9.85,1.9,1.89-.85,1.9-1.9,1.9Z"/>
  <path class="cls-1" d="M24.61,26.5h-2.52c-1.05,0-1.89-.85-1.89-1.89s.85-1.89,1.89-1.89h2.52c1.05,0,1.89.85,1.89,1.89s-.85,1.89-1.89,1.89Z"/>
  <path class="cls-1" d="M11.99,26.5h-2.52c-1.05,0-1.89-.85-1.89-1.89s.85-1.89,1.89-1.89h2.52c1.05,0,1.89.85,1.89,1.89s-.85,1.89-1.89,1.89Z"/>
  <path class="cls-1" d="M24.61,15.17h-2.52c-1.05,0-1.89-.85-1.89-1.89s.85-1.89,1.89-1.89h2.52c1.05,0,1.89.85,1.89,1.89s-.85,1.89-1.89,1.89Z"/>
  <path class="cls-1" d="M11.99,15.17h-2.52c-1.05,0-1.89-.85-1.89-1.89s.85-1.89,1.89-1.89h2.52c1.05,0,1.89.85,1.89,1.89s-.85,1.89-1.89,1.89Z"/>
</svg>