<?xml version="1.0" encoding="UTF-8"?>
<svg id="Layer_1" data-name="Layer 1" xmlns="http://www.w3.org/2000/svg" viewBox="0 0 58.66 58.53">
  <defs>
    <style>
      .cls-1 {
        fill: #3076bc;
      }

      .cls-2 {
        fill: #0abfd8;
      }
    </style>
  </defs>
  <path class="cls-1" d="M54.62,54.86v-23.46h-7.82v-7.12l-15.64-7.82v-4.86h11.73V.12h-11.73v-.12h-3.67v16.46l-15.64,7.82v7.12h-7.82v23.46H0v3.67h58.66v-3.67h-4.04ZM31.16,3.78h8.07v4.16h-8.07V3.78ZM11.85,54.86h-4.15v-19.79h4.15v19.79ZM31.4,54.86h-4.15v-8.06h4.15v8.06ZM43.14,54.86h-8.07v-11.73h-11.49v11.73h-8.06v-28.31l13.81-6.91,13.81,6.91v28.31ZM50.96,54.86h-4.16v-19.79h4.16v19.79Z"/>
  <path class="cls-2" d="M29.33,27.49c-3.17,0-5.75,2.58-5.75,5.74s2.58,5.75,5.75,5.75,5.74-2.58,5.74-5.75-2.58-5.74-5.74-5.74ZM29.33,35.31c-1.15,0-2.08-.93-2.08-2.08s.93-2.07,2.08-2.07,2.07.93,2.07,2.07-.93,2.08-2.07,2.08Z"/>
</svg>